HIERARCHY
ROOT Hips
{
	OFFSET -14.64140 90.27770 -84.91600
	CHANNELS 6 Xposition Yposition Zposition Zrotation Xrotation Yrotation
	JOINT Spine
	{
		OFFSET 0.00000 13.20850 -1.60436
		CHANNELS 3 Zrotation Xrotation Yrotation
		JOINT Spine1
		{
			OFFSET 0.00000 8.61716 0.00000
			CHANNELS 3 Zrotation Xrotation Yrotation
			JOINT Spine2
			{
				OFFSET 0.00000 8.61717 0.00000
				CHANNELS 3 Zrotation Xrotation Yrotation
				JOINT Spine3
				{
					OFFSET 0.00000 8.61717 0.00000
					CHANNELS 3 Zrotation Xrotation Yrotation
					JOINT Neck
					{
						OFFSET 0.00000 11.07920 1.10792
						CHANNELS 3 Zrotation Xrotation Yrotation
						JOINT Neck1
						{
							OFFSET 0.00000 7.08032 0.00000
							CHANNELS 3 Zrotation Xrotation Yrotation
							JOINT Head
							{
								OFFSET 0.00000 7.08031 0.00000
								CHANNELS 3 Zrotation Xrotation Yrotation
								End site
								{
									OFFSET 0.00000 0.00000 0.00000
								}
							}
						}
					}
					JOINT RightShoulder
					{
						OFFSET -0.01000 7.91373 5.19711
						CHANNELS 3 Zrotation Xrotation Yrotation
						JOINT RightArm
						{
							OFFSET -18.41580 0.00000 0.00000
							CHANNELS 3 Zrotation Xrotation Yrotation
							JOINT RightForeArm
							{
								OFFSET -29.11090 0.00000 0.00000
								CHANNELS 3 Zrotation Xrotation Yrotation
								JOINT RightHand
								{
									OFFSET -24.65040 0.00000 0.00000
									CHANNELS 3 Zrotation Xrotation Yrotation
									JOINT RightHandThumb1
									{
										OFFSET -5.35114 -0.85590 3.97906
										CHANNELS 3 Zrotation Xrotation Yrotation
										JOINT RightHandThumb2
										{
											OFFSET -4.52789 0.00000 0.00000
											CHANNELS 3 Zrotation Xrotation Yrotation
											JOINT RightHandThumb3
											{
												OFFSET -2.46976 0.00000 0.00000
												CHANNELS 3 Zrotation Xrotation Yrotation
												End site
												{
													OFFSET 0.00000 0.00000 0.00000
												}
											}
										}
									}
									JOINT RightHandIndex1
									{
										OFFSET -14.26970 0.00000 2.88139
										CHANNELS 3 Zrotation Xrotation Yrotation
										JOINT RightHandIndex2
										{
											OFFSET -5.48836 0.00000 0.00000
											CHANNELS 3 Zrotation Xrotation Yrotation
											JOINT RightHandIndex3
											{
												OFFSET -3.01859 0.00000 0.00000
												CHANNELS 3 Zrotation Xrotation Yrotation
												End site
												{
													OFFSET 0.00000 0.00000 0.00000
												}
											}
										}
									}
									JOINT RightHandMiddle1
									{
										OFFSET -14.26970 0.00000 -0.09147
										CHANNELS 3 Zrotation Xrotation Yrotation
										JOINT RightHandMiddle2
										{
											OFFSET -6.17441 0.00000 0.00000
											CHANNELS 3 Zrotation Xrotation Yrotation
											JOINT RightHandMiddle3
											{
												OFFSET -3.56743 0.00000 0.00000
												CHANNELS 3 Zrotation Xrotation Yrotation
												End site
												{
													OFFSET 0.00000 0.00000 0.00000
												}
											}
										}
									}
									JOINT RightHandRing1
									{
										OFFSET -12.69180 0.00000 -3.06433
										CHANNELS 3 Zrotation Xrotation Yrotation
										JOINT RightHandRing2
										{
											OFFSET -5.62556 0.00000 0.00000
											CHANNELS 3 Zrotation Xrotation Yrotation
											JOINT RightHandRing3
											{
												OFFSET -3.56744 0.00000 0.00000
												CHANNELS 3 Zrotation Xrotation Yrotation
												End site
												{
													OFFSET 0.00000 0.00000 0.00000
												}
											}
										}
									}
									JOINT RightHandPinky1
									{
										OFFSET -11.11390 0.00000 -6.03719
										CHANNELS 3 Zrotation Xrotation Yrotation
										JOINT RightHandPinky2
										{
											OFFSET -4.52789 0.00000 0.00000
											CHANNELS 3 Zrotation Xrotation Yrotation
											JOINT RightHandPinky3
											{
												OFFSET -2.46976 0.00000 0.00000
												CHANNELS 3 Zrotation Xrotation Yrotation
												End site
												{
													OFFSET 0.00000 0.00000 0.00000
												}
											}
										}
									}
								}
							}
						}
					}
					JOINT LeftShoulder
					{
						OFFSET 0.01000 7.91373 5.19711
						CHANNELS 3 Zrotation Xrotation Yrotation
						JOINT LeftArm
						{
							OFFSET 18.41580 0.00000 0.00000
							CHANNELS 3 Zrotation Xrotation Yrotation
							JOINT LeftForeArm
							{
								OFFSET 29.11090 0.00000 0.00000
								CHANNELS 3 Zrotation Xrotation Yrotation
								JOINT LeftHand
								{
									OFFSET 24.65040 0.00000 0.00000
									CHANNELS 3 Zrotation Xrotation Yrotation
									JOINT LeftHandThumb1
									{
										OFFSET 5.35114 -0.85590 3.97906
										CHANNELS 3 Zrotation Xrotation Yrotation
										JOINT LeftHandThumb2
										{
											OFFSET 4.52789 0.00000 0.00000
											CHANNELS 3 Zrotation Xrotation Yrotation
											JOINT LeftHandThumb3
											{
												OFFSET 2.46977 0.00000 0.00000
												CHANNELS 3 Zrotation Xrotation Yrotation
												End site
												{
													OFFSET 0.00000 0.00000 0.00000
												}
											}
										}
									}
									JOINT LeftHandIndex1
									{
										OFFSET 14.26970 0.00000 2.88139
										CHANNELS 3 Zrotation Xrotation Yrotation
										JOINT LeftHandIndex2
										{
											OFFSET 5.48836 0.00000 0.00000
											CHANNELS 3 Zrotation Xrotation Yrotation
											JOINT LeftHandIndex3
											{
												OFFSET 3.01859 0.00000 0.00000
												CHANNELS 3 Zrotation Xrotation Yrotation
												End site
												{
													OFFSET 0.00000 0.00000 0.00000
												}
											}
										}
									}
									JOINT LeftHandMiddle1
									{
										OFFSET 14.26970 0.00000 -0.09147
										CHANNELS 3 Zrotation Xrotation Yrotation
										JOINT LeftHandMiddle2
										{
											OFFSET 6.17440 0.00000 0.00000
											CHANNELS 3 Zrotation Xrotation Yrotation
											JOINT LeftHandMiddle3
											{
												OFFSET 3.56744 0.00000 0.00000
												CHANNELS 3 Zrotation Xrotation Yrotation
												End site
												{
													OFFSET 0.00000 0.00000 0.00000
												}
											}
										}
									}
									JOINT LeftHandRing1
									{
										OFFSET 12.69180 0.00000 -3.06433
										CHANNELS 3 Zrotation Xrotation Yrotation
										JOINT LeftHandRing2
										{
											OFFSET 5.62556 0.00000 0.00000
											CHANNELS 3 Zrotation Xrotation Yrotation
											JOINT LeftHandRing3
											{
												OFFSET 3.56744 0.00000 0.00000
												CHANNELS 3 Zrotation Xrotation Yrotation
												End site
												{
													OFFSET 0.00000 0.00000 0.00000
												}
											}
										}
									}
									JOINT LeftHandPinky1
									{
										OFFSET 11.11390 0.00000 -6.03719
										CHANNELS 3 Zrotation Xrotation Yrotation
										JOINT LeftHandPinky2
										{
											OFFSET 4.52789 0.00000 0.00000
											CHANNELS 3 Zrotation Xrotation Yrotation
											JOINT LeftHandPinky3
											{
												OFFSET 2.46976 0.00000 0.00000
												CHANNELS 3 Zrotation Xrotation Yrotation
												End site
												{
													OFFSET 0.00000 0.00000 0.00000
												}
											}
										}
									}
								}
							}
						}
					}
					JOINT pCube4
					{
						OFFSET 0.00000 10.91090 1.10792
						CHANNELS 3 Zrotation Xrotation Yrotation
						End site
						{
							OFFSET 0.00000 0.00000 0.00000
						}
					}
				}
			}
		}
	}
	JOINT RightUpLeg
	{
		OFFSET -9.98441 0.00000 0.00000
		CHANNELS 3 Zrotation Xrotation Yrotation
		JOINT RightLeg
		{
			OFFSET 0.00000 -42.11790 0.00000
			CHANNELS 3 Zrotation Xrotation Yrotation
			JOINT RightFoot
			{
				OFFSET 0.00000 -45.00020 -0.00001
				CHANNELS 3 Zrotation Xrotation Yrotation
				JOINT RightForeFoot
				{
					OFFSET 0.00000 -3.74820 0.00000
					CHANNELS 3 Zrotation Xrotation Yrotation
					JOINT RightToeBase
					{
						OFFSET 0.00000 0.06325 14.43120
						CHANNELS 3 Zrotation Xrotation Yrotation
						End site
						{
							OFFSET 0.00000 0.00000 0.00000
						}
					}
				}
			}
		}
	}
	JOINT LeftUpLeg
	{
		OFFSET 9.98441 0.00000 0.00000
		CHANNELS 3 Zrotation Xrotation Yrotation
		JOINT LeftLeg
		{
			OFFSET 0.00000 -42.11800 0.00000
			CHANNELS 3 Zrotation Xrotation Yrotation
			JOINT LeftFoot
			{
				OFFSET 0.00000 -45.00070 0.00000
				CHANNELS 3 Zrotation Xrotation Yrotation
				JOINT LeftForeFoot
				{
					OFFSET 0.00000 -3.74824 0.00000
					CHANNELS 3 Zrotation Xrotation Yrotation
					JOINT LeftToeBase
					{
						OFFSET 0.00000 0.06325 14.43110
						CHANNELS 3 Zrotation Xrotation Yrotation
						End site
						{
							OFFSET 0.00000 0.00000 0.00000
						}
					}
				}
			}
		}
	}
}
MOTION
Frames: 4
Frame Time: 0.050000
0.01780188102471469 -0.04061883069854542 -0.015576930187810768 -0.008366513456587751 0.02494628229570226 0.02017297319348839 -3.229100957180931 -0.16721943758815813 -0.7813702407253367 -1.058353902506013 3.7350721396159217 0.4283034166290971 -1.2811880810066525 -1.9778704113725856 -0.11855041317237766 -0.23743680122887773 0.34518407344399005 -0.6301490656439911 0.253243017588737 12.301599991958508 -0.32946635635296107 0.09142048195254351 -1.246632190392396 -2.8990063483474415 0.5267770037272408 -17.287188085014176 -0.25243996202802865 -5.289623868417483 1.9273329722397 -14.629204673158299 71.8833345071754 30.91285224869387 11.251652943589377 1.3594858089353776 3.5743770209120074 91.20811512496498 17.288873181417195 -0.680256328851141 -4.283345040406235 4.573012520267918 -0.14385704054274256 -1.620561597689914 -0.034319948478532675 0.012141251460000394 -56.19032373375494 0.030052166283683176 -0.010731981068551555 -56.21130390882439 -38.72400549338803 0.00020752062618293617 0.049967038476446415 -0.03249727742854814 -0.012566615907768289 -0.04200614685749768 0.024117588873695278 -0.040998504202001844 -0.0200368116064443 -36.68470073456002 0.011705572301746379 0.047856441984111146 -0.03161881909779285 0.012599761593986819 0.0288227008231991 0.043232623369771205 0.045107699986008165 -0.03778040023362472 -19.77848536190545 -0.026744733633559743 -0.02363706108261688 -0.0362376147162675 -0.008319479591958568 0.018383269812431817 0.02185472934031626 -0.013527509987427022 0.027087612135824547 24.06403721193909 -0.04586472864824886 -0.025778211237563013 28.880816586112125 0.0016786017181373344 -0.028804062643603752 28.823039247860738 0.02855155685658883 0.023878088930345147 4.865434328057042 1.155423234366981 13.125253760015482 -74.00295060526717 30.62969533624182 -3.5969200413440308 1.4323362075316344 -8.064254263373886 -40.59453888669284 -15.612871762150105 -2.399076803506914 5.549486912233727 -0.4898178426273146 0.09874838797424901 -8.132645570157946 -0.03051991792416345 0.028839381942297723 44.565105521275306 -0.02621367956836035 -0.01598412312947062 44.52785588619799 12.507425307466674 0.015491315346456693 -0.016732242756395573 -0.04612424986863823 0.004314025355136152 -0.023152843043512446 -0.005081216398999235 0.02587216308061909 -0.013761624043476183 11.15082645096011 -0.0032751185513676894 0.006768368591123373 0.016815965379148246 -0.033724311563809756 -0.02571696019004208 0.0105433067257878 0.006109939614206143 -0.023562423167007476 4.789496852867874 -0.0014736812526681725 0.017497872803918357 -0.01705415475316393 -0.01842594613265045 -0.0469998464815145 -0.02757325131289038 -0.040804485762229246 0.014320682267886888 -5.583773394137748 -0.02036878256719481 -0.008463729689238208 -6.764579726330446 0.02291575762263891 -0.032099185639297916 -6.698105830223047 0.0016436896213066125 0.03573452782636133 0.044415463621836036 -0.00373186419014753 -0.003057891907224784 8.034884928348012 3.4908706997610524 -19.22373007504885 0.0077664799424942395 10.418431598647679 -0.024282562096612354 -5.603682229583323 -15.65477519022632 3.2106592951830057 -0.037965289131898367 0.03434211729496635 -0.038169451344260696 -0.025030875340427215 4.737218434676301 -0.026603238912114555 12.448919378240836 -8.214756730492226 6.859392325455609 -0.008971159863062296 46.41963541169448 -0.04579301786986303 -4.295550601994505 -14.748668550457598 -3.8830173775803845 -0.007475530552037709 -0.0484194126565425 0.021917298630094145 -0.04404054767076544 -10.77610939287476 0.04215408709796911 
-0.04876130758278747 0.019550126562197845 0.026791008454885964 -0.034416996038143584 0.02933369804298049 0.02780473149877359 -3.0898069216387594 -0.24594254210827832 -0.800738322385589 -0.958916322861574 3.718101622206386 0.44384854770554205 -1.3538352274117682 -1.9248202068584053 0.0005811734581493699 -0.18440358361299417 0.3503715843563562 -0.6928557632571808 0.3637872247159438 12.13197256792729 -0.6905819751608101 0.1635435241192636 -1.2726076651605616 -3.8139447946988057 0.6237902499603065 -17.313324888189694 -0.31272235019904326 -5.29614740501061 1.9628807900272096 -14.636081506936673 70.80663862504638 31.329178794922168 11.87135425849791 2.0232647374088346 3.5585062364404254 91.38302509539486 16.605345652054158 -0.6353473436731774 -4.15090698133706 4.480464286941032 -0.10364210904139029 -1.5826735326063162 -0.04260831536521609 -0.03803509216248819 -56.21675970749615 -0.032944452118212675 0.0421832859237819 -56.27600943289643 -38.79425701326327 -0.012838615365473849 0.00742572688229776 0.011371632908626167 0.0247097332197065 -0.008187487728572251 0.01648338296813096 -0.019354264540771025 -0.010226054348763551 -36.701801933554655 -0.031430854930661355 -0.0167292845741637 0.0035644750423695945 -0.0007681052147855404 0.047674048425162686 -0.03920149929133854 0.027422212183475826 -0.014899402664078253 -19.761569253907027 0.012358888821866205 0.020830664078658297 0.012898783239371155 0.03915512412983294 -0.0473372249493698 -0.015964138709278722 -0.03178167191914834 -0.0416611620527837 24.077713097174623 -0.03256769950493379 0.017694483795017285 28.82932658350872 -0.0009495167886995526 0.04030811049366643 28.838141483829045 -0.043057258435904196 0.020956982406742743 4.6782842466640915 1.0647574670070135 13.037329615517125 -73.86667308500164 31.049482829837498 -3.3302574584207307 0.5861364631122156 -7.720923817082637 -40.66095027669021 -15.58328141102111 -2.3145309074749068 5.226609163811117 -0.5131504167338263 0.06525248556944728 -8.143288987151069 -0.044975832256833374 0.0026376004026523875 44.560873525084325 -0.04429204198695403 0.03598439481144775 44.54112753078885 12.501131039815021 0.020922831962421243 -0.029057449576551018 0.04684474836608175 -0.008084013957554847 0.03351029769561921 -0.02034731137065992 -0.018246957487768674 -0.02029129974025535 11.129133615194384 -0.0024846611488522088 -0.04832850194262227 -0.038836591930855674 -0.006341814003143469 -0.001408991830934623 0.03356752401069875 -0.046085455055587324 -0.04236138072301497 4.774547980166888 0.02937863813991196 -0.006495375934324854 -0.034597400958139596 -0.04896212314103225 -0.028043582510451446 0.040564487355372936 0.03262820443858444 0.024551126912639304 -5.583387527265045 -0.008118445102908241 0.007269255900395608 -6.731131351559935 -0.042626079843594206 0.026286752292552083 -6.704617091063227 0.008274786286174854 -0.0433992339008572 -0.039311279596580075 -0.011076986258634495 0.003140581545020956 8.052165898699329 3.506113903327212 -19.218594055361226 0.0018087408837868335 10.40607165723903 0.009174759121748265 -5.646765281759657 -15.64809273932612 3.17104703379884 -0.03404581698466911 -0.007962316606261129 0.047562372484246114 0.021978010925826613 4.679914641212044 -0.004077334002018315 12.502463594869582 -8.274351999991866 6.8767389256393745 0.004695969691123868 46.35480341644861 -0.020858536805125914 -4.295229951683743 -14.722865729636888 -3.860035822549317 -0.02109225438937572 0.02844103363884969 0.008642150811940032 0.003747449790974061 -10.778303238465442 0.0016039240764682678 
0.0038938178468644474 -0.0010148725908249235 -0.039949505723565926 0.013731735057458144 -0.01080369891315447 0.005464295848554429 -2.9799010298790383 -0.28427930296298376 -0.8211598139259016 -0.9777243907494313 3.7787788527475765 0.4049644569843978 -1.361160381076853 -1.8897243740612768 0.11508447367993074 -0.06159599327268908 0.3537557701897106 -0.6399325189271675 0.5074147083872531 12.020541664621767 -1.0858578888258437 0.11200844309938715 -1.2683785127434917 -4.8375227139693235 0.6710797247906599 -17.347764862438886 -0.4080327365443356 -5.313551693636054 1.884385933551298 -14.527658614534811 69.85847267869248 32.064049490089836 12.487946207012623 2.1807685433465362 3.2883349646402467 90.56546339620076 16.16478849291586 -0.5916166586443761 -3.9168798021046456 4.49789528606867 -0.0999166941292365 -1.6155310057885328 0.012072772580412585 0.0012967262407823064 -56.22872644576093 0.023632951038984808 -0.049323727946253865 -56.20624450798868 -38.73652501583959 -0.02608286259519494 0.04963009922044816 -0.017725944348425737 0.028011481337635778 0.01974684513601211 -0.00024100367370524952 0.040254252520462004 0.013971390533899045 -36.72441449302113 -0.01597301311102714 0.004445736499640183 -0.017415668866016972 0.0347562205053795 -0.028416097990372532 0.009568934546452959 0.031950976063123346 -0.017799661888238724 -19.755692611016194 0.03197213597958455 -0.018257567849892513 -0.0478280798328478 0.0035585608022318913 -0.035310415262496876 -0.005878175367925997 -0.020791056483441536 -0.011689959858312893 24.102544129229727 0.014557837556274371 0.03408310226557683 28.90443014930252 0.028981730024297832 0.04977552144099602 28.894892959992728 -0.00691522316836604 -0.023451403529080917 4.389355987755072 1.047881687476996 13.03394677363242 -73.55847007845601 31.32459701606012 -2.7695931403044662 0.3282396830690193 -7.661213060196176 -40.756838079187965 -15.392538953114155 -1.9690533444679932 4.88527471807806 -0.44382849218277254 0.029799679172425868 -8.156672300425722 -0.012015462126762088 0.01617717759813305 44.6019843398703 -0.024649006200307796 0.027428076030470032 44.60769238268582 12.428252037292763 0.030497068144931187 0.018263342439792087 -0.021997409488961405 -0.009146413028462128 -0.03527830659696772 -0.01811024030411886 0.02145490523136746 0.04600592441336963 11.11023477069691 0.036029710056068816 0.03104552395540549 0.026414803718956388 -0.021237626563676892 -0.0012874901920290035 -0.01415195178214143 -0.029979470659977865 -0.006919638026482088 4.760035626375513 -0.03246802747839946 -0.014573339176369111 0.04831861009768849 0.03404478458527959 0.032399894659585204 0.005530074104772308 -0.04092613332156303 -0.014214186781475133 -5.591226148646052 -0.01226418805960178 0.04578858876078588 -6.693474355830354 0.006826029282952488 -0.03978328888281302 -6.679870288487891 0.00494869317520614 0.014193444963247297 0.04866747395519019 0.0029880952744055413 -0.022607748212391858 8.002352571908329 3.494247879753471 -19.213894950892772 -0.03731626082140464 10.396431236678822 -0.023836657859602418 -5.624373133053624 -15.688285336853555 3.1603256870163072 -0.0007234295241131467 0.02286503532701688 0.0327634818266888 0.045053380438264616 4.668379288918263 0.04664290663327009 12.502955373172245 -8.258986760672315 6.889284410740953 0.027160934674926356 46.40591357795756 -0.000591295590402288 -4.353789127589251 -14.752599361607487 -3.869524194514895 -0.027254181305453175 0.010210682809634079 -0.026752765282630035 0.0449715933270418 -10.72956965018134 0.0263931920826692 
-0.04957116558763022 -0.01569566423672435 0.03549832178847743 0.033086836619994925 0.005424656905288146 -0.0061434733269080735 -2.8249626192498005 -0.4032372654221944 -0.7899489412537777 -0.9781816900298473 3.718616556359076 0.44158681747597717 -1.2905350583666666 -1.8977834308938726 0.2001197053393774 0.021668913661771032 0.3409926715164146 -0.6526425366221871 0.5740124114960603 11.88445448166567 -1.2866773025433487 0.10498383710001659 -1.257939098100444 -5.692588921948272 0.7838724155299238 -17.336461180544187 -0.4668569067285417 -5.4890702586678914 1.8914880236839076 -14.369837569042412 69.08528881567936 33.017318842195884 13.66495565436422 2.0202674031362893 2.901302652049527 90.5895849906591 15.849619681699098 -0.6428447648272277 -3.7234055177263006 4.517871170917599 -0.1691787389968926 -1.619830786869843 0.002977530454654263 -0.043815266238800804 -56.212553577959454 0.01606799700300631 -0.031364625176081816 -56.275844953839666 -38.80044320005998 0.04175856133261998 -0.014289040636299814 0.004195110184574928 -0.026337032802816084 0.04395670679696851 0.00878699368665756 -0.02601662994437457 -0.012770248872549857 -36.66776337058091 -0.0022274037579850885 0.0309491418566978 -0.010660187431077628 -0.0352323333216631 0.011760114115044146 0.007773777536127243 -0.04327485732801606 0.02472759755204883 -19.751330605040174 0.021048065675579684 -0.016033170025291636 -0.019690891863040728 -0.008008012859825319 -0.01344930986813732 -0.0397377687729408 0.013263503145397206 0.020219257714558795 24.061448169263628 0.012691671223984928 -0.03028468285510717 28.829254125502356 0.00179376342443092 -0.016056264118222946 28.822392202328647 -0.02734643164084822 -0.014990978270161832 4.181368895802488 0.9820810262720121 13.022998698812232 -73.3769357499943 31.439449793784135 -2.380419657796513 0.5517477040445696 -7.995103800454542 -41.01839983171608 -15.19769642741263 -1.8416640479279593 4.6264058195972195 -0.501689627916003 0.08206387170253224 -8.139090350474175 0.04040416051980409 -0.007992574455703089 44.56793421969692 0.0019115717862272458 -0.0017703834540291332 44.52188928968541 12.417167073876211 -0.01977589101277455 -0.022587383881829116 -0.011107320777449352 -0.010984744092445955 -0.0010500089293550877 -0.02197291165313298 0.023056242939963008 -0.021024311746667572 11.0567710077342 0.03428183094247334 -0.029103040441193894 0.04171603911901238 -0.04108138613384655 -0.023762718208435354 -0.032278728935503646 0.0023068096984316454 0.015152139383319742 4.737409397149529 -0.005085821397555619 -0.04600299268431694 -0.039458691622108404 0.023746517523806254 0.0037687497471058044 0.02210848599623642 0.014158205796087195 -0.03202833768527355 -5.563175272740612 -0.042766077488041995 0.03604481615545783 -6.764562391066434 -0.02340658309949761 0.0408882096032302 -6.699629541425866 0.028036800763703015 0.005518788208525831 0.003984709140892169 -0.006000877999111255 0.027655225970161845 8.040892846609157 3.4479453796528907 -19.21166229028678 0.005001082998452292 10.402520390505979 0.05612418632872089 -5.599754354469298 -15.671753514043425 3.150096877044987 -0.00894482514980131 -0.025229239281544715 0.049745822154874914 -0.03233551038136494 4.660281995711094 0.04274875467893823 12.42842231402572 -8.22361359041757 6.928916976595287 0.033332864511696286 46.40691976592775 0.047580284065804876 -4.294503694559434 -14.73655488080219 -3.828260389261162 0.02552809555619432 0.010327784523456719 -0.04104469104910307 -0.04250344848826374 -10.74070056518422 0.04365880347971424 
